<svg version="1" xmlns="http://www.w3.org/2000/svg" width="341.333" height="341.333" viewBox="0 0 256.000000 256.000000"><path d="M0 128v128h256V0H0v128zm48.5-99c1.8 1.1 5.1 4.4 7.2 7.3C60.9 43.1 77 59.4 89 69.9c5.2 4.6 11.1 9.8 13 11.5 10.2 9.1 12.2 9.4 22.5 3.6 13.4-7.6 27-13.9 31.2-14.3 7.2-.7 13.3 5.4 13.3 13.2 0 4.9-4.3 8.2-15 11.4-11.1 3.4-14 5.6-14 10.6 0 8.2 7.4 17.3 49.5 60.6 15.5 15.9 30.6 31.7 33.6 35 3 3.2 8 8.6 11.1 12l5.8 6V240h-9.5c-9.3 0-9.6-.1-14.8-3.6-2.8-2-15.3-13.8-27.7-26.3-20.4-20.5-36.9-36.4-61.1-58.7-8.3-7.7-15-11.4-20.6-11.4-3.4 0-7.1 5.4-9.8 14.6-3 9.6-6.2 14.1-10.8 14.9-3.9.8-9.3-1.4-12.7-5-2.1-2.3-2.5-3.6-2.5-8.8.1-7 3.3-14.2 12.5-28.7 5.8-8.9 7.1-12.5 5.9-15.8-2.5-6.7-33.8-40.9-50-54.7-9-7.6-11.4-11.8-10.6-18.4 1-9.3 11.9-14.2 20.2-9.1z"/><path d="M35.2 34.3C33.6 36 33 37.9 33 41c0 2.4.3 4.1.6 3.7.3-.3 1.8.6 3.1 2 2 1.9 2.8 2.2 3.4 1.2.6-1 1-.9 1.5.6.4 1.1 7.4 8.7 15.5 17 8.1 8.2 18.8 19.9 23.9 26 11.5 13.9 15 17.7 17.5 19.1 2 1.1 2 1.2.1 3.3-1.1 1.1-1.5 2.1-.9 2.1 1.3 0 4.3-3.3 4.3-4.7 0-.6.7-1.4 1.6-1.7 1.4-.5 1.4-.8 0-2.1-.8-.8-1.7-1.5-2-1.5-1.5 0-6.5-5.5-7.1-7.8-.3-1.4-1.7-3.9-3.1-5.5-3.3-3.9-2.5-4.4 2.1-1.3 2 1.4 4.6 2.8 5.8 3.1 5.7 1.7 7.7 3.1 8.3 5.8.5 2.3.8 2.6 2 1.6 1-.8 1.4-.8 1.4 0 0 2.1 1.5 1.1 3.9-2.7l2.4-3.7-2.5 2.3-2.6 2.3-2-3.3c-1.2-1.8-3.3-4.2-4.8-5.3-1.5-1.1-6.2-4.9-10.4-8.5-4.2-3.6-9.2-7.7-11.1-9.3-1.9-1.5-10.5-9.8-19.2-18.5-8.7-8.6-15.5-14.9-15.2-13.9.4.9 1.2 1.7 1.7 1.7.6 0 .8 1.2.4 2.7-.5 2.6.8 4.1 14.2 17 8.1 7.8 14.3 14.5 13.9 15-.5.4-7.6-6.1-15.8-14.5C50 49.1 46 46.2 47.3 51.1c.3 1.1.1 1.7-.4 1.3-.5-.3-.9-1.2-.9-2s-.9-2.3-2-3.4c-1.6-1.6-1.8-2.5-1-4 .6-1.1 1.7-2 2.5-2s1.9-.9 2.5-2c1-1.9.6-2.4-1.3-2.1-.5.1-1.8-1-2.9-2.4-2.4-3.1-5.8-3.2-8.6-.2zm8.3 1.6c.3.5.1 1.2-.5 1.6-.5.3-1-.1-1-.9 0-1.8.6-2.1 1.5-.7zm-1.4 4.6c.1 1.9-2 1.6-3.1-.4-.9-1.8-.8-2 1.1-1.3 1.1.5 2 1.2 2 1.7zm41.1 37.2c.6 1.2 1.4 2.1 1.8 1.8.3-.2.7 1.2.8 3.1.3 4.1-1.5 4.5-4.6.9-1.2-1.4-1.7-2.5-1.1-2.5.5 0 .9-.6.8-1.3-.3-2.5.3-7.1.8-5.7.2.8.9 2.5 1.5 3.7zm6.8 8.4c0 .5-.7.9-1.5.9s-1.5-.7-1.5-1.5c0-.9.6-1.2 1.5-.9.8.4 1.5 1 1.5 1.5zM45 32.9c0 .6.4 1.3 1 1.6.6.3.7-.1.4-.9-.7-1.8-1.4-2.1-1.4-.7zM158 73.5c0 .2 1.4 1.7 3 3.3 3.3 3.4 3.8 3.3 1.4-.3-1.3-2-4.4-4.2-4.4-3zM149.5 77.1c-.3.4.2.6 1 .5 2.1-.3 2.8-1.3 1-1.3-.9 0-1.8.4-2 .8zM151.5 80.4c-2.2 1.2-7.1 3.9-11 6-9.6 5.2-15.5 10.3-17.3 14.8-1 2.5-2.1 3.7-3.1 3.6-2.4-.4-2.7 6.2-.4 9.1l1.9 2.3 2.4-7.6c1.4-4.6 3.4-8.5 4.9-10 3.6-3.4 14.3-8.7 24.5-12.2 4.7-1.6 8.6-3.2 8.6-3.6 0-.5-.4-.8-.8-.8-1.4 0-11.3 3.6-17.6 6.4-3.2 1.5-6 2.5-6.3 2.3-.4-.5 6.7-4.5 15-8.3 3.1-1.5 5.7-3.1 5.7-3.5 0-1.4-2.2-.9-6.5 1.5zM164.6 84c.8 4.3 1.4 5.1 1.4 1.9 0-1.3-.5-3.1-1-3.9-.7-1.1-.8-.5-.4 2zM128.5 88c-.3.5-.1 1 .4 1 .6 0 1.1-.5 1.1-1 0-.6-.2-1-.4-1-.3 0-.8.4-1.1 1zM120 93.5c-.7.9-1.1 1.8-.8 2 .3.3 1.1-.1 1.8-1s1.1-1.8.8-2c-.3-.3-1.1.1-1.8 1z"/><path d="M131.5 101c-1 1.1-1.4 2-.9 2 .5 0 1.5-.9 2.2-2 .7-1.1 1.1-2 .9-2-.2 0-1.2.9-2.2 2zM103 103.3c0 .8.7 2 1.5 2.7.8.7 1.5 2.7 1.5 4.5 0 2.8.4 3.2 2.5 3.2 3.1 0 5.1-2.2 6-6.7.5-2.7.4-3.2-.5-2.4-1.3 1.3-7.2.3-9.5-1.6-1.2-1-1.5-1-1.5.3zM126.6 110.2c-.3 1.3-.6 2.6-.6 2.9 0 .8 5.1 3.1 5.7 2.6.4-.4-3.6-7.7-4.2-7.7-.1 0-.5 1-.9 2.2zM127 117.5c0 .8.7 1.5 1.6 1.5 1.1 0 1.5.6 1.1 1.9-.3 1.4-.1 1.8 1 1.4 1.2-.5 1.4 0 .8 2.5-.6 3.1-.5 3.2 2.4 3.2 2.6 0 3.1-.4 3.1-2.3-.1-2.7-1.5-4.6-5.7-7.5-3.7-2.6-4.3-2.7-4.3-.7zM115.3 117.7c.5.9-.7 1-4.8.6-5-.5-5.5-.4-5.5 1.4 0 1.4-1.2 2.5-3.9 3.5-2.7 1.1-5.1 3.3-8.4 8-5 7-13.7 22.5-13.7 24.5 0 3 1.8.7 5.3-7 2.1-4.5 4.7-9.3 5.8-10.7l2-2.5-1.7 4c-5.3 12.7-7.5 19.1-7.2 20.9.2 1.3 1.2-.5 2.7-4.9 3.6-10.7 9.4-22.6 12.9-26.6 2.2-2.6 5-4.2 10.2-5.9l7-2.3 3.1 2.2c4.3 3.2 4.1 2.3-.5-2.4-2.2-2.2-3.7-3.5-3.3-2.8zM94 120.2c-1.2 2.2-1.2 2.2.6.6 1-1 1.5-2 1.2-2.4-.4-.3-1.2.5-1.8 1.8zM90.9 124.7c-1.3 1.6-1.2 1.7.4.4.9-.7 1.7-1.5 1.7-1.7 0-.8-.8-.3-2.1 1.3z"/><path d="M108.6 127.1c.2.4 2.2 1.6 4.3 2.7l4 2.1-1.1-3c-.9-2.5-1.5-2.9-4.3-2.7-1.9.1-3.2.5-2.9.9zM116.6 126.9c-.8 1.3 7.3 10.1 9.4 10.1 1.9 0 3-1.9 3-5.1 0-1.6-.5-1.8-2.5-1.3-1.5.4-3 .1-3.9-.7-4.6-4.2-5.1-4.5-6-3zM88.5 128.1c-.4.6-.5 1.2-.2 1.5.2.3.7-.2 1-1.1.7-1.7.1-2-.8-.4zM137 130.4c0 4-1.1 5.6-3.9 5.6-4.1 0-5.5 1.4-4.7 4.6.7 2.6.9 2.7 2 1.1 1.6-2.1 4.6-2.3 4.6-.2 0 .7-.8 1.9-1.7 2.4-1.6.9-1.6 1.2-.3 2.1.8.5 2.3 1 3.3 1 .9 0 1.7.6 1.7 1.4 0 1.9 5.7 8.9 8.6 10.4 4.6 2.4 8.8-2.6 4.9-5.8-1.3-1-1.9-.9-3.5.5-1.5 1.3-2.4 1.5-3.1.8-.8-.8-.5-1.3 1-1.8 3.1-1 2.6-3.2-1.4-5.7-1.9-1.3-3.5-2.6-3.5-3.1 0-.4-.9-1.6-2-2.7s-2-2.5-2-3c0-1.6 2.7-1.2 4.6.7 1 1 2.1 1.8 2.6 1.8.4 0 2 1.8 3.4 3.9l2.7 3.9 2.2-2.7c1.5-1.9 2.5-2.4 3-1.6.4.6-.2 2.1-1.4 3.4-2.6 2.8-2.6 3.3-.1 4.6 2.8 1.5 6-.4 6-3.4 0-2.9-8-10.6-11-10.6-1.4 0-2-.7-2-2.3 0-3.3-.9-3.8-3.6-2-2.3 1.5-2.4 1.4-2.4-1.1 0-1.4.5-2.6 1.1-2.6.5 0 .7-.5.4-1-.3-.6-1.7-1-3.1-1-1.9 0-2.4.5-2.4 2.4zM101.3 130.2c-1.7 2.2-2.6 4.5-1 2.5.8-.9 1.9-1.7 2.6-1.7.6 0 1.1-.5 1.1-1 0-1.4-1.6-1.2-2.7.2z"/><path d="M131 132c0 1.3.7 2 2 2s2-.7 2-2-.7-2-2-2-2 .7-2 2zM85.1 133.7c-1 2.6-1 2.7.4.9.8-1.1 1.5-2.3 1.5-2.8 0-1.5-.7-.8-1.9 1.9zM80.6 141.9c-3.6 6.9-3.2 7.8.4 1.2 1.7-3 2.8-5.6 2.6-5.9-.3-.2-1.6 1.9-3 4.7zM94.6 140.5c-.9 2.6-.7 3.2.5 1.2.6-1 .9-2.1.6-2.3-.2-.3-.7.2-1.1 1.1zM121.5 140c.3.5.8 1 1.1 1 .2 0 .4-.5.4-1 0-.6-.5-1-1.1-1-.5 0-.7.4-.4 1zM75.6 153.6c-.9 2.6-1.6 5.2-1.5 5.8 0 .6.9-1.3 2-4.3 1-3 1.7-5.6 1.5-5.8-.2-.2-1.1 1.7-2 4.3zM160.4 154.5c-1 2.5.3 4.3 4.7 6.4 2.3 1.2 4.4 1.9 4.6 1.7.2-.2-.9-2.4-2.4-4.9-2.8-4.7-5.8-6.1-6.9-3.2zM89.1 156.6c0 1.1.3 1.4.6.6.3-.7.2-1.6-.1-1.9-.3-.4-.6.2-.5 1.3zM88.1 160.6c0 1.1.3 1.4.6.6.3-.7.2-1.6-.1-1.9-.3-.4-.6.2-.5 1.3zM154.7 160.1c-2.8 1.6-2 3.7 2.2 5.9 2.2 1.1 4.3 2.4 4.6 3 .4.6 1 .8 1.5.5 1.1-.7-3-8.4-5-9.5-.9-.5-2.3-.4-3.3.1zM76.6 161.1c.6 1.1 6.4 4.2 6.9 3.7.2-.2-1.4-1.3-3.6-2.5-2.1-1.2-3.7-1.7-3.3-1.2zM87.1 164.6c0 1.1.3 1.4.6.6.3-.7.2-1.6-.1-1.9-.3-.4-.6.2-.5 1.3zM148.5 165c.3.5.8 1 1.1 1 .2 0 .4-.5.4-1 0-.6-.5-1-1.1-1-.5 0-.7.4-.4 1zM169 169.4c0 .7.6 1.9 1.4 2.5 1.1.9 1.5.8 2-.5 1-2.6.7-3.4-1.4-3.4-1.1 0-2 .6-2 1.4z"/></svg>